<svg id="svg-sprite" xmlns="http://www.w3.org/2000/svg">
  <defs>
    <symbol id="top-btn" preserveAspectRatio="xMidYMid" viewBox="0 0 24 24">
      <path d="M0 16.67l2.829 2.83 9.175-9.339 9.167 9.339 2.829-2.83-11.996-12.17z"/>
    </symbol>
    <!-- hero icons -->
    <symbol id="wp-icon" preserveAspectRatio="xMidYMid" viewBox="0 0 447.674 447.674">
      <path d="m134.29 138.16h-24.722l67.399 190.52 37.732-107.82-29.254-82.696h-26.084v-18.154h115.51v18.154h-27.049l67.398 190.52 24.227-69.234c31.781-88.702-26.048-116.33-26.048-136.13s16.048-35.843 35.843-35.843c1.071 0 2.111 0.058 3.13 0.153-33.541-31.663-78.768-51.08-128.53-51.08-65.027 0-122.31 33.146-155.88 83.458h66.336v18.154h2e-3z"/>
      <path d="m36.548 223.84c0 71.704 40.302 133.99 99.483 165.46l-84.52-238.92c-9.628 22.556-14.963 47.385-14.963 73.461z"/>
      <path d="m386.83 131.55c2.679 15.774 1.868 33.503-2.243 51.301h0.745l-2.832 8.092c-1.678 5.843-3.791 11.82-6.191 17.693l-64.444 180.54c59.057-31.51 99.256-93.725 99.256-165.34 0-33.557-8.834-65.048-24.291-92.289z"/>
      <path d="m166.08 402.03c18.195 5.894 37.603 9.091 57.762 9.091 19.228 0 37.777-2.902 55.239-8.285l-54.784-154.86-58.217 154.06z"/>
      <path d="m382.11 65.56c-42.277-42.277-98.488-65.56-158.28-65.56s-116 23.283-158.28 65.56-65.56 98.487-65.56 158.28c0 59.789 23.283 116 65.56 158.28s98.488 65.56 158.28 65.56 116-23.283 158.28-65.56c42.277-42.277 65.56-98.488 65.56-158.28-1e-3 -59.79-23.284-116-65.561-158.28zm-158.28 366.32c-114.72 0-208.05-93.329-208.05-208.05s93.329-208.05 208.05-208.05 208.05 93.33 208.05 208.05-93.328 208.05-208.05 208.05z"/>
    </symbol>
    <symbol id="drupal-icon" preserveAspectRatio="xMidYMid" viewBox="0 0 512.136 512.136">
      <path d="m346.07 81.148c-34.412-21.307-65.621-47.395-92.693-77.483-2.384-2.681-5.932-4.021-9.493-3.584-3.561 0.51-6.625 2.78-8.149 6.037-13.714 28.683-34.497 53.408-60.395 71.851-90.678 30.307-152.38 114.52-153.94 210.11 3.156 126.56 108.09 226.73 234.67 224 126.57 2.731 231.51-97.436 234.67-224-0.894-92.222-58.356-174.42-144.66-206.93z" fill="#03A9F4"/>
      <g fill="#FAFAFA">
        <path d="m405.4 256.08c-21.111 1.758-40.768 11.464-54.997 27.157-7.893 6.4-17.493 14.123-29.504 22.997-53.995-51.072-87.701-71.488-118.16-71.488-65.963 0-96 44.224-96 85.333 0 47.128 38.205 85.333 85.333 85.333 39.68 0 102.87-50.005 126.48-69.931 15.851 19.733 50.773 59.264 76.181 59.264 33.045 0 53.333-43.477 53.333-74.667 1e-3 -57.768-29.866-63.998-42.666-63.998z"/>
        <path d="m329.48 426.75c0.426 0.031 0.854 0.031 1.28 0 5.433 0.038 10.026-4.013 10.667-9.408 1.381-8.381-0.956-16.947-6.4-23.467-6.663-6.906-16.051-10.494-25.621-9.792-20.451-1.28-40.01 8.54-51.2 25.707-3.354 4.843-2.148 11.488 2.695 14.842 4.669 3.234 11.053 2.242 14.521-2.256 7.144-11.696 20.343-18.283 33.984-16.96 3.374-0.378 6.765 0.553 9.472 2.603 1.278 2.022 1.736 4.457 1.28 6.805-0.736 5.845 3.405 11.18 9.25 11.916 0.023 4e-3 0.048 7e-3 0.072 0.01z"/>
        <path d="m333.85 440.53c-17.067 17.067-87.808 14.464-102.25 0-4.237-4.093-10.99-3.975-15.083 0.262-3.993 4.134-3.993 10.687 0 14.821 19.994 13.467 43.924 19.844 67.968 18.112 22.95 1.787 45.789-4.632 64.448-18.112 4.093-4.237 3.975-10.99-0.262-15.083-4.132-3.992-10.686-3.992-14.82 0z"/>
      </g>
    </symbol>
    <symbol id="joomla-icon" preserveAspectRatio="xMidYMid" viewBox="0 0 75 74.9">
      <g stroke-linejoin="round" stroke-miterlimit="1.414" transform="translate(-37.6,-37.5)">
        <path d="m51 75.2-1.4-1.4c-4.5-4.5-5.8-10.8-4.2-16.5-4.5-1-7.8-5-7.8-9.8 0-5.5 4.5-10 10-10 5 0 9.1 3.6 9.9 8.4 5.4-1.3 11.3 0.2 15.5 4.4l0.6 0.6-7.4 7.4-0.6-0.6c-2.4-2.4-6.3-2.4-8.7 0s-2.4 6.3 0 8.7l16.6 16.6-7.4 7.4-7.8-7.8z" fill="#7ac143"/>
        <path d="m59.3 67 16.6-16.6c4.4-4.4 10.8-5.8 16.4-4.2 0.7-4.9 4.9-8.6 9.9-8.6 5.5 0 10 4.5 10 10 0 5.1-3.8 9.3-8.7 9.9 1.6 5.6 0.2 11.9-4.2 16.3l-0.6 0.6-7.2-7.4 0.6-0.6c2.4-2.4 2.4-6.3 0-8.7s-6.3-2.4-8.7 0l-16.6 16.6z" fill="#f9a541"/>
        <path d="m92.6 104.3c-5.7 1.7-12.1 0.4-16.6-4.1l-0.6-0.6 7.4-7.4 0.6 0.6c2.4 2.4 6.3 2.4 8.7 0s2.4-6.3 0-8.7l-16.6-16.6 7.4-7.4 16.7 16.7c4.2 4.2 5.7 10.2 4.4 15.7 4.9 0.7 8.6 4.9 8.6 9.9 0 5.5-4.5 10-10 10-5-0.1-9.1-3.6-10-8.1z" fill="#f44321"/>
        <path d="m89.7 83.5-16.6 16.6c-4.3 4.3-10.3 5.7-15.7 4.4-1 4.5-5 7.8-9.8 7.8-5.5 0-10-4.5-10-10 0-4.7 3.3-8.7 7.7-9.7-1.4-5.6 0-11.6 4.3-15.9l0.6-0.6 7.4 7.4-0.6 0.6c-2.4 2.4-2.4 6.3 0 8.7s6.3 2.4 8.7 0l16.6-16.6z" fill="#5091cd"/>
      </g>
    </symbol>
    <symbol id="html-icon" preserveAspectRatio="xMidYMid" viewBox="0 0 100 113.48">
      <g transform="matrix(.063181 0 0 .063181 -13.181 -6.4435)" stroke-width="15.828">
        <g stroke-width="250.51">
          <polygon points="208.63 101.98 1791.4 101.98 1647.1 1718.5 999.62 1898 352.73 1718.4" fill="#e34e26"/>
          <polygon points="1523.6 1615.6 1646.9 234.11 1e3 234.11 1e3 1760.7" fill="#ef662a"/>
          <polygon points="764.16 1124 565.16 1124 593.61 1442.3 999.7 1555.1 1406.3 1442.3 1460.8 833.67 738.23 833.67 720.09 630.65 1478.2 630.65 1478.8 630.65 1496.5 432.38 503.47 432.38 556.91 1031.9 1244 1031.9 1221 1289 999.74 1348.9 778.92 1289.1" fill="#fff"/>
          <g fill="#ebebeb">
            <polygon points="1e3 630.65 1e3 432.38 503.47 432.38 556.91 1031.9 1e3 1031.9 1e3 833.67 738.23 833.67 720.09 630.65"/>
            <polygon points="1e3 1555 1e3 1348.8 999.74 1348.9 778.92 1289.1 764.16 1124 565.16 1124 593.61 1442.3 999.7 1555.1"/>
          </g>
        </g>
      </g>
    </symbol>
    <symbol id="grav-icon" preserveAspectRatio="xMidYMid" viewBox="0 0 256 256">
      <path d="m136.23 94.936c1.4979-1.4978 1.4979-3.9254 0-5.422-1.4984-1.4978-3.924-1.4978-5.4219 0-1.4986 1.4966-1.4986 3.9241 0 5.422 1.4979 1.4964 3.9234 1.4964 5.4219 0zm-13.7 2.8647c-1.4986 1.4964-1.4986 3.9241 0 5.422 1.4958 1.4964 3.9234 1.4964 5.4219 0 1.4958-1.4978 1.4958-3.9255 0-5.422-1.4984-1.4978-3.9261-1.4978-5.4219 0zm23.766 2.0151c-2.3435-2.3442-6.1422-2.3421-8.4843 0l-4.99 4.9899c-2.3442 2.3442-2.3442 6.1429 0 8.4843l5.4786 5.4805c2.3433 2.3442 6.1422 2.3421 8.4843 0l4.99-4.9899c2.3435-2.3442 2.3435-6.1429 0-8.4864l-5.4786-5.4784zm48.113-18.002c6.3315-12.058-2.6251-19.101-8.7815-24.882-9.8616-9.2699-19.697-13.277-30.932-0.44196-11.227 12.836-4.0938 27.723 6.1753 35.07 10.274 7.3475 27.197 2.3082 33.538-9.7464zm-17.01-4.9448c-3.9564-4.7422 3.4397-13.352 8.08-8.2107 8.5471 9.4719-4.1167 12.953-8.08 8.2107zm-49.399-76.869c-70.694 0-128 57.308-128 128 0 70.693 57.309 128 128 128 70.689 0 128-57.312 128-128 0-70.687-57.308-128-128-128zm69.217 148.97c-13.348-8.8211-20.975-16.275-27.619-29.638-4.5435 9.1561-15.152 22.771-33.047 33.482-8.9336 27.792-51.431 80.981-65.185 73.441-4.0724-2.2302-4.8459-5.168-3.9262-8.1985 0.98645-7.5976 16.703-25.059 16.703-25.059s0.33222 3.6639 5.3601 11.383c-6.6409-20.616 10.973-46.054 15.639-54.714 7.332-2.3367 7.863-11.751 7.863-11.751 0.46894-14.552-6.0311-25.087-12.33-31.388 4.5258 5.5237 5.9907 13.871 6.2057 21.516v0.042538c0.022902 0.86375 0.022902 1.7113 0.019453 2.5563-0.21495 6.3281-2.1291 15.07-6.2251 15.07l0.012141 0.055245c-4.2111-0.18051-9.41 0.71832-14.055 2.171l-10.269 2.454s5.4765-0.25067 8.4338 2.3044c-3.2935 5.3633-10.613 12.019-18.778 15.8-11.879 5.509-15.293-5.4522-9.2617-12.581 1.4809-1.7424 2.9767-3.2112 4.391-4.4146-0.91029-0.94192-1.4844-2.2033-1.6353-3.8041-0.0013797-0.008148-0.0074501-0.016159-0.0093816-0.024307-0.82806-3.637-0.37126-8.3589 4.7751-15.864 1.0161-1.5887 2.2342-3.2173 3.6936-4.8714 0.046632-0.056625 0.085676-0.10911 0.13286-0.16435 0.062636-0.076099 0.13272-0.14819 0.19743-0.22236 0.036974-0.041158 0.072018-0.082177 0.11106-0.12527 0.36726-0.41779 0.75812-0.82604 1.1759-1.2202 6.1327-6.2817 15.82-12.815 31.086-18.678 17.803-26.168 24.322-31.076 24.322-31.076 1.9708-2.0153 5.4158-4.5211 6.6819-5.1598-9.2969-16.155-11.174-38.928-8.7383-45.065-0.19743 0.3323-0.37871 0.67177-0.52965 1.0235 0.90284-2.1015 1.508-2.7773 2.4458-3.883 2.5388-3.0038 11.144-4.5777 14.234 1.7855 1.6461 3.3924 1.9568 7.7868 1.9021 11.082-6.8146-0.35522-12.996 7.4257-12.996 7.4257s5.6443-2.6635 12.656-2.7106c0 0 1.869 1.6252 4.201 4.6774-3.1486 5.9124-8.3247 18.437-4.5764 31.586 0.62126 2.5914 1.5605 4.8183 2.7269 6.7129 0.044425 0.081624 0.081537 0.1638 0.12665 0.24805 0.093678 0.12264 0.17784 0.22429 0.26544 0.33754 6.1975 9.3305 17.557 10.422 17.557 10.422-5.3478-2.6682-9.7032-6.9177-12.539-12.07-1.4742-2.7557-2.377-5.0823-2.9316-6.9177-3.0078-11.617 1.4203-18.399 3.9552-22.946 5.8323-9.047 16.457-14.523 27.877-13.219 16.027 1.8287 27.539 16.305 25.707 32.328-1.1171 9.7894-6.9569 17.887-14.98 22.293 1.9297 5.2225-0.13272 11.555-0.13272 11.555 4.8593 6.1125 5.0735 9.6364 4.9057 12.91-6.1759-1.0389-12.176 3.129-12.176 3.129s11.914-2.844 18.836 3.3299c4.5015 4.8418 7.5039 9.2174 9.2929 12.449 2.5624 4.6088 14.461 4.9375 13.106 13.226-1.3556 8.2767-10.43 8.3549-24.656-1.0309z" fill="#221E1F"/>
    </symbol>
    <!-- Brands -->
    <symbol id="airtable-logo" preserveAspectRatio="xMidYMid" viewBox="0 0 350.3 76.241">
      <style type="text/css">
        .st1{fill:#FCB400;}
        .st2{fill:#18BFFF;}
        .st3{fill:#F82B60;}
        .st4{fill:#CE1B4E;}
      </style>
      <path  d="m140.5 43.975-6.1-16.4c-0.2-0.7-1.2-0.7-1.4 0l-6.1 16.4c-0.1 0.4 0.1 0.8 0.5 1h12.5c0.4 0 0.8-0.3 0.8-0.8-0.2-0.1-0.2-0.1-0.2-0.2m2.8 9.2h-19.3c-0.3 0-0.6 0.2-0.7 0.5l-3.8 10.2c-0.1 0.3-0.4 0.5-0.7 0.5h-8.4c-0.4 0-0.8-0.3-0.8-0.8 0-0.1 0-0.2 0.1-0.3l19.2-47.9c0.1-0.3 0.4-0.5 0.7-0.5h8c0.3 0 0.6 0.2 0.7 0.5l19.2 47.9c0.2 0.4 0 0.8-0.4 1-0.1 0-0.2 0.1-0.3 0.1h-8.4c-0.3 0-0.6-0.2-0.7-0.5l-3.8-10.2c0-0.3-0.3-0.5-0.6-0.5m18.3-21.4h7.1c0.4 0 0.8 0.3 0.8 0.8v31.1c0 0.4-0.3 0.8-0.8 0.8h-7.1c-0.4 0-0.8-0.3-0.8-0.8v-31.1c0-0.5 0.3-0.8 0.8-0.8m33.9 7.6c0 0.4-0.3 0.8-0.8 0.8h-0.2c-3.5 0-6.1 0.8-7.8 2.5-1.6 1.7-2.5 4.5-2.5 8.4v12.6c0 0.4-0.3 0.8-0.8 0.8h-7.1c-0.4 0-0.8-0.3-0.8-0.8v-31.1c0-0.4 0.3-0.8 0.8-0.8h7c0.4 0 0.8 0.3 0.8 0.8v6.2h0.1c0.8-2.5 2.2-4.5 4-5.9s4.1-2 6.8-2h0.4v8.5zm19.6-0.3c-0.4 0-0.8 0.3-0.8 0.8v12.9c0 1.3 0.3 2.3 0.8 2.8 0.5 0.6 1.4 0.8 2.7 0.8h0.7c0.4 0 0.8 0.3 0.8 0.8v6.5c0 0.4-0.3 0.8-0.8 0.8h-3c-3.2 0-5.6-0.8-7.3-2.4s-2.5-4-2.5-7.2v-15c0-0.4-0.3-0.8-0.8-0.8h-4.5c-0.4 0-0.8-0.3-0.8-0.8v-5.7c0-0.4 0.3-0.8 0.8-0.8h4.5c0.4 0 0.8-0.3 0.8-0.8v-11.5c0-0.4 0.3-0.8 0.8-0.8h7.1c0.4 0 0.8 0.3 0.8 0.8v11.5c0 0.4 0.3 0.8 0.8 0.8h5.2c0.4 0 0.8 0.3 0.8 0.8v5.7c0 0.4-0.3 0.8-0.8 0.8zm32.7 15.7c1.6-1.7 2.4-3.9 2.4-6.6s-0.8-4.9-2.4-6.6-3.8-2.5-6.4-2.5-4.8 0.8-6.4 2.5-2.4 3.9-2.4 6.6 0.8 4.9 2.4 6.6 3.8 2.5 6.4 2.5c2.7 0 4.8-0.8 6.4-2.5m-16.5 8.7c-2.4-1.4-4.3-3.4-5.7-6s-2.1-5.7-2.1-9.4c0-3.6 0.7-6.7 2.1-9.4 1.4-2.6 3.3-4.6 5.7-6s5-2 7.9-2c2.5 0 4.7 0.5 6.5 1.5s3.3 2.4 4.3 4.2h0.1v-3.8c0-0.4 0.3-0.8 0.8-0.8h7.1c0.4 0 0.8 0.3 0.8 0.8v31.1c0 0.4-0.3 0.8-0.8 0.8h-7.1c-0.4 0-0.8-0.3-0.8-0.8v-3.8c-1.1 1.8-2.5 3.2-4.3 4.2s-4 1.5-6.5 1.5c-3-0.1-5.6-0.8-8-2.1m57-8.7c1.6-1.7 2.4-3.9 2.4-6.6s-0.8-4.9-2.4-6.6-3.8-2.5-6.4-2.5-4.8 0.8-6.4 2.5-2.4 3.9-2.4 6.6 0.8 4.9 2.4 6.6 3.8 2.5 6.4 2.5 4.8-0.8 6.4-2.5m-10.7 9.2c-1.8-1-3.3-2.4-4.3-4.2h-0.2v3.8c0 0.4-0.3 0.8-0.8 0.8h-7.1c-0.4 0-0.8-0.3-0.8-0.8v-47.9c0-0.4 0.3-0.8 0.8-0.8h7.1c0.4 0 0.8 0.3 0.8 0.8v20.6h0.1c1.1-1.8 2.5-3.2 4.3-4.2s4-1.5 6.5-1.5c2.9 0 5.5 0.7 7.9 2 2.4 1.4 4.3 3.4 5.7 6s2.1 5.7 2.1 9.4c0 3.6-0.7 6.7-2.1 9.4-1.4 2.6-3.3 4.6-5.7 6s-5 2.1-7.9 2.1c-2.4 0-4.6-0.5-6.4-1.5m34.2 0.4h-7.1c-0.4 0-0.8-0.3-0.8-0.8v-47.9c0-0.4 0.3-0.8 0.8-0.8h7.1c0.4 0 0.8 0.3 0.8 0.8v47.9c0 0.5-0.3 0.8-0.8 0.8m16.9-25c-1.2 0.9-2 2.3-2.4 4-0.1 0.5 0.3 0.9 0.8 0.9h13.6c0.5 0 0.8-0.4 0.8-0.9-0.3-1.7-1-3-2.1-4-1.3-1.2-3.1-1.7-5.3-1.7s-4 0.6-5.4 1.7m17.4-4.1c2.8 3 4.2 7.3 4.2 12.9v0.9c0 0.4-0.3 0.8-0.8 0.8h-22.7c-0.4 0-0.8 0.3-0.8 0.8v0.1c0.4 2.1 1.3 3.7 2.7 4.9 1.7 1.4 3.8 2.1 6.3 2.1 3.3 0 6.3-1.3 9.1-3.8 0.3-0.3 0.9-0.2 1.1 0.1l3.5 5c0.2 0.3 0.2 0.8-0.1 1-1.7 1.5-3.6 2.8-5.6 3.7-2.3 1.1-4.9 1.7-8 1.7-3.5 0-6.6-0.7-9.3-2.2-2.6-1.4-4.7-3.5-6.1-6.1-1.5-2.6-2.2-5.6-2.2-9.1 0-3.4 0.7-6.5 2.1-9.1s3.4-4.7 5.9-6.1c2.5-1.5 5.5-2.2 8.9-2.2 5.1 0 9 1.6 11.8 4.6m-175.7-15c0 2.9-2.4 5.3-5.3 5.3s-5.3-2.4-5.3-5.3 2.4-5.3 5.3-5.3 5.3 2.4 5.3 5.3"/>
      <path class="st1" d="m40.6 0.975-34 14.1c-1.9 0.8-1.9 3.5 0 4.2l34.1 13.5c3 1.2 6.3 1.2 9.3 0l34.1-13.5c1.9-0.8 1.9-3.4 0-4.2l-34-14.1c-2.9-1.3-6.4-1.3-9.5 0"/>
      <path class="st2" d="m48.5 40.175v33.8c0 1.6 1.6 2.7 3.1 2.1l38-14.8c0.9-0.3 1.4-1.2 1.4-2.1v-33.8c0-1.6-1.6-2.7-3.1-2.1l-38 14.8c-0.8 0.4-1.4 1.2-1.4 2.1"/>
      <path class="st3" d="m39.6 41.975-11.3 5.4-1.1 0.6-23.8 11.4c-1.5 0.7-3.4-0.4-3.4-2v-31.7c0-0.6 0.3-1.1 0.7-1.5 0.2-0.2 0.4-0.3 0.6-0.4 0.6-0.3 1.4-0.4 2.1-0.2l36.1 14.3c1.8 0.6 1.9 3.2 0.1 4.1"/>
      <path class="st4" d="m39.6 41.975-11.3 5.4-27.7-23.3c0.2-0.2 0.4-0.3 0.6-0.4 0.6-0.3 1.4-0.4 2.1-0.2l36.1 14.3c1.9 0.7 2 3.3 0.2 4.2"/>
    </symbol>
    <symbol id="discord-logo" preserveAspectRatio="xMidYMid" viewBox="0 0 377.08 72.3">
      <path style="fill:#5865F2;" d="m60.376 0c-0.8 1.5-1.8 3.5-2.5 5.1-7.2-1.1-14.4-1.1-21.5 0-0.7-1.6-1.7-3.6-2.5-5.1-6.8 1.2-13.4 3.2-19.5 6.1-12.3 18.4-15.6 36.4-14 54.1 8.2 6 16.1 9.7 23.8 12.1 1.9-2.6 3.6-5.4 5.1-8.3-2.8-1.1-5.5-2.4-8-3.9 0.7-0.5 1.3-1 2-1.5 15.5 7.2 32.4 7.2 47.7 0 0.6 0.5 1.3 1.1 2 1.5-2.6 1.5-5.2 2.8-8.1 3.9 1.5 2.9 3.2 5.7 5.1 8.3 7.8-2.4 15.7-6.1 23.9-12.1 2-20.5-3.3-38.3-14-54.1-6.2-2.9-12.7-5-19.5-6.1zm-28.9 49.2c-4.7 0-8.5-4.3-8.5-9.5s3.7-9.6 8.5-9.6c4.7 0 8.6 4.3 8.5 9.6-0.1 5.2-3.8 9.5-8.5 9.5zm31.3 0c-4.7 0-8.5-4.3-8.5-9.5s3.7-9.6 8.5-9.6c4.7 0 8.6 4.3 8.5 9.6 0 5.2-3.8 9.5-8.5 9.5zm96.5-28.5c-3.4-1.5-7.5-2.3-12.4-2.3h-20.2v36.7h18.8c5.3 0 9.7-0.8 13.3-2.5 3.6-1.6 6.2-3.9 8-6.7 1.7-2.8 2.6-6 2.6-9.4 0-3.5-0.8-6.7-2.5-9.4s-4.3-4.9-7.6-6.4zm-6.5 22.6c-1.8 1.7-4.3 2.5-7.6 2.5h-5.6v-18.1h6.3c3.2 0 5.6 0.8 7.1 2.4 1.6 1.6 2.4 3.7 2.4 6.4 0 2.9-0.8 5.2-2.6 6.8zm68.9-4.1c1.7 1.5 2.5 3.7 2.5 6.6 0 3.2-1.4 5.7-4.1 7.6-2.8 1.9-6.6 2.8-11.7 2.8-3 0-5.9-0.4-8.7-1.1s-5.3-1.8-7.6-3.2v-8.7c1.7 1.3 4 2.4 6.8 3.3 2.9 0.9 5.6 1.3 8.3 1.3 1.2 0 2.2-0.2 2.8-0.5s1-0.7 1-1.2-0.2-1-0.5-1.3c-0.3-0.4-1-0.6-2-0.9l-6.2-1.4c-3.6-0.8-6.1-2-7.6-3.5s-2.3-3.4-2.3-5.9c0-2 0.7-3.8 2-5.3s3.2-2.7 5.6-3.5 5.3-1.2 8.5-1.2c2.9 0 5.6 0.3 8 0.9s4.4 1.4 6 2.4v8.2c-1.6-1-3.5-1.8-5.6-2.3-2.1-0.6-4.3-0.9-6.6-0.9-3.3 0-4.9 0.6-4.9 1.7 0 0.5 0.3 0.9 0.8 1.2s1.4 0.5 2.8 0.8l5.2 0.9c3.3 0.7 5.8 1.7 7.5 3.2zm34.4 6.1c1.7-0.5 3.1-1.1 4.3-1.9v9.3c-3.8 2.3-8.2 3.5-13.2 3.5-4.2 0-7.8-0.8-10.8-2.2-3-1.5-5.2-3.5-6.7-6s-2.3-5.4-2.3-8.5c0-3.2 0.8-6 2.3-8.5 1.6-2.5 3.8-4.4 6.8-5.9 3-1.4 6.6-2.1 10.8-2.1 5.2 0 9.5 1.1 12.9 3.3v9.6c-1.2-0.8-2.6-1.5-4.2-2s-3.3-0.8-5.2-0.8c-3.2 0-5.7 0.6-7.5 1.8s-2.7 2.7-2.7 4.7c0 1.9 0.9 3.4 2.6 4.7 1.8 1.2 4.3 1.8 7.7 1.8 1.8 0 3.5-0.3 5.2-0.8zm38.4-20.1c-3-1.4-6.5-2.1-10.6-2.1s-7.7 0.7-10.6 2.1c-3 1.4-5.2 3.3-6.8 5.8s-2.4 5.3-2.4 8.4c0 3.2 0.8 6 2.4 8.6s3.9 4.6 6.8 6c3 1.5 6.5 2.2 10.6 2.2s7.6-0.7 10.6-2.2 5.3-3.5 6.8-6c1.6-2.6 2.3-5.4 2.3-8.6s-0.8-6-2.3-8.5c-1.5-2.4-3.8-4.3-6.8-5.7zm-5.5 19.5c-1.3 1.3-3 1.9-5.2 1.9s-4-0.6-5.2-1.9c-1.3-1.3-1.9-3-1.9-5.1s0.6-3.8 1.9-5 3-1.9 5.2-1.9 3.9 0.6 5.2 1.9c1.3 1.2 1.9 2.9 1.9 5s-0.6 3.8-1.9 5.1zm41.1-20.9c1.8 0 3.4 0.4 4.7 1.3v11.3c-1.3-0.9-3-1.3-5.1-1.3-2.8 0-4.9 0.8-6.4 2.5s-2.2 4.3-2.2 7.9v9.7h-12.7v-30.7h12.5v9.8c0.7-3.6 1.8-6.2 3.4-7.9 1.4-1.8 3.4-2.6 5.8-2.6zm34.3-6.4v13.7c-2.1-5.3-6.1-8-12.2-8-2.9 0-5.6 0.7-7.9 2.2-2.3 1.4-4.1 3.4-5.3 6-1.3 2.6-1.9 5.4-1.8 8.7 0 3.1 0.6 5.9 1.7 8.4 1.2 2.5 2.8 4.4 5 5.8 2.1 1.4 4.6 2.1 7.5 2.1 3.2 0 5.9-0.7 8.1-2s3.8-3.3 4.9-5.9v6.9h12.7v-37.8h-12.7zm-1.9 27.1c-1.3 1.3-3 1.9-5.2 1.9-2.1 0-3.8-0.6-5.1-1.9s-1.9-2.9-1.9-4.9 0.6-3.6 1.9-4.9c1.3-1.2 3-1.9 5.1-1.9 2.2 0 3.9 0.6 5.2 1.8s1.9 2.8 1.9 4.8c0 2.1-0.6 3.8-1.9 5.1zm-176.1-22.6c0 3.2-2.8 5.8-6.3 5.8s-6.3-2.6-6.3-5.8 2.8-5.8 6.3-5.8c3.5 0.1 6.3 2.7 6.3 5.8zm0 9.8v23.6h-12.7v-23.6c3.9 1.7 8.7 1.7 12.7 0z"/>
    </symbol>
    <symbol id="hankook-logo" preserveAspectRatio="xMidYMid" viewBox="0 0 385.8 48.208">
      <path d="m128.8 7.8c-0.2 0.7-10.6 34.6-10.7 35h-13.9c0.2-0.6 4.5-14.7 4.5-14.7h-12.1s-4.4 14.3-4.5 14.7h-14c0.2-0.6 10.7-35 10.7-35h13.9l-3.9 12.8h12.2s3.8-12.4 3.9-12.8zm83.3 6.9c0-1.5-0.3-3.1-1.4-4.5-1.5-2.1-4.3-3.1-8.1-3.1-7.4 0-12.3 2.8-14.6 4.5l-0.6 0.5 1.3-4.3h-13.9s-10.5 34.3-10.7 35h13.8c0.1-0.4 6.5-21.1 6.5-21.1 0.9-2.9 3.2-4.9 5.7-4.9h3.6c1.1 0 2 0.4 2.5 1.1 0.4 0.5 0.6 1.2 0.6 2 0 0.6-0.1 1.2-0.3 1.9 0 0-5.6 18.3-6.4 21h13.9c0.1-0.4 7.6-24.7 7.6-24.7 0.2-0.7 0.5-2 0.5-3.4zm-44 3.9s-7.3 23.8-7.4 24.2h-13.9c0.2-0.5 0.8-2.6 0.8-2.6l-0.5 0.3c-4.2 2-8.8 3.1-13 3.1-4.5 0-7.7-1.2-9.4-3.4-1.4-1.9-1.7-4.6-0.7-7.7 1.1-3.6 3.3-6.6 6.4-8.7 3.3-2.2 7.4-3.3 12.1-3.3 0 0 4.5-0.1 10.4 1.9l0.3 0.1 0.9-2.8c0.3-1 0.2-1.8-0.2-2.4-0.9-1.2-3.4-1.8-7.7-1.8-4.5 0-9.7 2-10.9 2.6-0.1-0.5-2-7-2.2-7.4 1.5-0.5 10.2-3.2 19.4-3.2 7.5 0 12.7 1.6 14.9 4.6 0.8 1.2 1.3 2.5 1.3 4-0.2 0.5-0.3 1.5-0.6 2.5zm-17 10.1-0.2-0.1c-2.2-1.1-5.9-1.1-6.9-1.1-3.8 0-6.6 1.5-7.4 4-0.1 0.4-0.2 0.7-0.2 1.1 0 0.6 0.2 1.1 0.5 1.5 0.8 1 2.4 1.6 4.7 1.6 2.4 0 5.6-0.7 7.8-1.7h0.1zm107.8-21.1h-16.7c-0.1 0.1-13.3 10.5-13.3 10.5l3.2-10.5h-13.9s-10.7 34.9-10.9 35.5h13.9c0.1-0.4 4.4-14.4 4.4-14.4s10 14.2 10.1 14.4h14.8c-0.5-0.8-12.7-18.2-12.7-18.2s20-16.4 21.1-17.3zm31.7 4.6c2.6 3.5 3.1 8.1 1.6 13-4.1 13.3-12.7 19.2-28.1 19.2-6.5 0-11.7-2.2-14.6-6.1-2.6-3.5-3.1-8.1-1.6-13 3.7-12.2 14-19.2 28.1-19.2 6.6 0 11.8 2.2 14.6 6.1zm-11.9 5.2c-1-1.4-2.9-2.1-5.6-2.1-7.1 0-10.3 5.4-11.6 9.9-1.1 3.7-1.1 6.3 0.1 7.9 1 1.4 2.9 2.1 5.6 2.1 7.1 0 10.3-5.4 11.6-9.9 1.1-3.7 1.1-6.3-0.1-7.9zm59.9 7.8c-4.1 13.3-12.7 19.2-28.1 19.2-6.5 0-11.7-2.2-14.6-6.1-2.6-3.5-3.1-8.1-1.6-13 3.7-12.2 14-19.2 28.1-19.2 6.5 0 11.7 2.1 14.6 6.1 2.5 3.4 3.1 8 1.6 13zm-13.6-7.8c-1-1.4-2.9-2.1-5.6-2.1-7.1 0-10.3 5.4-11.6 9.9-1.1 3.7-1.1 6.3 0.1 7.9 1 1.4 2.9 2.1 5.6 2.1 7.1 0 10.3-5.4 11.6-9.9 1.2-3.7 1.1-6.2-0.1-7.9zm60.8-10.1h-15.8c-0.1 0.1-13.5 11.4-13.5 11.4l3.5-11.4h-13.9s-10.8 35.4-11 36.1h13.8c0.1-0.4 4.5-14.7 4.5-14.7s10.7 14.5 10.9 14.7h15.2c-0.6-0.8-13.7-18.3-13.7-18.3s18.9-16.9 20-17.8z"/>
      <path style="fill:#F25C19;" d="m82.3 1.8-0.2-1.7h-11.8c1.4 13.9-8.2 29.4-21.9 33.1-0.1 0-0.2 0-0.3-0.2 0-0.1 0-0.1 0.1-0.2 11.4-7.6 17.4-19.9 16.4-32.8h-11.6c0.5 11.3-7.1 21.7-18.7 25.9-0.1 0-0.2 0-0.3-0.2 0-0.1 0-0.1 0.1-0.2 8.4-5.8 13.5-14.3 13.2-25.5h-11.6c-0.1 13.4-12.1 22.7-35.7 22.7 0.3 0.2 0.7 0.4 1 0.6 15.3 8.4 23.3 13.5 34.6 22.7 1.7 1.5 4.2 2.3 6.6 2.2 30.5-2 41.5-28.8 40.1-46.4"/>
    </symbol>
    <symbol id="hubspot-logo" preserveAspectRatio="xMidYMid" viewBox="0 0 329.2 93.3">
      <style type="text/css">
        .st1{fill:#FF7A59;}
      </style>
      <path style="fill:#33475B;" d="m35.7 15.5v26.3h-24.2v-26.3h-11.5v62.8h11.5v-25.5h24.2v25.5h11.5v-62.8zm48.2 42.5c0 5.2-4.3 9.5-9.5 9.5s-9.5-4.3-9.5-9.5v-26.9h-10.9v26.9c0 11.2 9.1 20.4 20.4 20.3 11.2 0 20.3-9.1 20.3-20.3v-26.9h-10.8zm80.6-24.1c0-5.5 3.6-7.3 7.6-7.3 3.2 0 7.5 2.5 10.3 5.4l7.1-8.4c-3.6-4.8-10.8-8.1-16.7-8.1-11.8 0-20.3 6.9-20.3 18.4 0 21.3 26 14.5 26 26.4 0 3.7-3.6 6.9-7.6 6.9-6.4 0-8.5-3.1-11.5-6.5l-7.9 8.2c5.1 6.2 11.3 9.4 18.8 9.4 11.2 0 20.2-7 20.2-17.9 0-23.6-26-16.3-26-26.5m160.8 34.4c-6.4 0-8.3-2.8-8.3-7v-18.9h10v-9.6h-10v-12.6l-11 5v38.4c0 9.8 6.8 14.8 16.1 14.8 1.5 0 2.9-0.1 4.4-0.3l2.7-9.9c-1.2 0-2.6 0.1-3.9 0.1m-200-36.9c-5.4 0-9.2 1.6-12.8 5.1v-20.7h-10.9v38.4c0 14.3 10.4 24.2 22 24.2 12.9 0 24.3-10 24.3-23.5 0-13.3-10.4-23.5-22.6-23.5m-0.1 36c-6.8 0-12.4-5.5-12.4-12.4 0-6.8 5.5-12.4 12.4-12.4s12.4 5.6 12.4 12.4c0 6.9-5.5 12.4-12.4 12.4m118.5-13.1c0-13.5-11.3-23.5-24.3-23.5-11.7 0-22 9.8-22 24.2v38.3h10.9v-20.7c3.6 3.6 7.4 5.1 12.8 5.1 12.1 0.1 22.6-10.1 22.6-23.4m-10.4-0.1c0 6.8-5.5 12.4-12.4 12.4-6.8 0-12.4-5.5-12.4-12.4 0-6.8 5.5-12.4 12.4-12.4s12.4 5.6 12.4 12.4"/>
      <path class="st1" d="m278.9 30.3v-11c3-1.4 4.8-4.3 4.9-7.6v-0.3c0-4.7-3.8-8.4-8.4-8.4h-0.3c-4.7 0-8.4 3.8-8.4 8.4v0.3c0 3.3 1.9 6.2 4.9 7.6v11c-4.2 0.6-8.1 2.4-11.4 5l-30-23.4c0.2-0.8 0.3-1.6 0.3-2.4 0-5.2-4.2-9.5-9.5-9.5-5.2 0-9.5 4.2-9.5 9.5 0 5.2 4.2 9.5 9.5 9.5 1.6 0 3.3-0.4 4.7-1.3l29.6 23c-5.4 8.2-5.3 18.9 0.4 27l-9 9c-0.7-0.2-1.5-0.4-2.2-0.4-4.3 0-7.8 3.5-7.8 7.8s3.5 7.8 7.8 7.8 7.8-3.5 7.8-7.8c0-0.8-0.1-1.5-0.4-2.2l8.9-8.9c10.5 8.1 25.6 6.1 33.7-4.4s6.1-25.6-4.4-33.7c-3.4-2.3-7.2-3.9-11.2-4.6m-3.7 36.1c-6.8 0.2-12.5-5.2-12.6-12-0.2-6.8 5.2-12.5 12-12.6h0.7c6.8 0.2 12.1 5.9 11.9 12.7-0.4 6.4-5.5 11.6-12 11.9"/>
    </symbol>
    <symbol id="kia-logo" preserveAspectRatio="xMidYMid" viewBox="0 0 333.8 78.4">
      <path style="fill:#131E29;" d="m193.7 69.5c0 0.6 0.2 1 0.6 1 0.3 0 0.6-0.2 0.8-0.3l104-67.5c1.8-1.2 3.9-1.9 6-1.8h22.8c3.5 0 5.9 2.3 5.9 5.8v43.6c0 5.3-1.2 8.3-5.8 11.1l-27.7 16.7c-0.3 0.2-0.6 0.3-0.9 0.3s-0.7-0.3-0.7-1.2v-50.9c0-0.6-0.2-1-0.6-1-0.3 0-0.6 0.1-0.8 0.3l-76 49.4c-1.7 1.2-3.8 1.8-5.8 1.8h-50.4c-3.5 0-5.9-2.3-5.9-5.9v-62.9c0-0.5-0.2-0.9-0.6-0.9-0.3 0-0.6 0.2-0.8 0.3l-50.2 30.1c-0.5 0.3-0.6 0.6-0.6 0.8s0.1 0.4 0.4 0.8l35.8 35.8c0.5 0.5 0.8 0.8 0.8 1.2 0 0.3-0.5 0.6-1.2 0.6h-32.4c-2.5 0-4.5-0.4-5.9-1.7l-21.7-21.7c-0.2-0.2-0.4-0.3-0.7-0.3-0.2 0-0.5 0.1-0.7 0.2l-36.3 21.8c-2.2 1.3-3.7 1.7-5.9 1.7h-33.3c-3.6 0-5.9-2.3-5.9-5.8v-42.8c0-5.3 1.2-8.3 5.9-11.1l27.9-16.8c0.2-0.1 0.5-0.2 0.7-0.2 0.4 0 0.7 0.4 0.7 1.4v57.3c0 0.6 0.1 0.9 0.6 0.9 0.3 0 0.6-0.2 0.8-0.3l94.3-56.7c1.8-1.2 4-1.8 6.2-1.7h50.7c3.5 0 5.9 2.3 5.9 5.8z"/>
    </symbol>
    <symbol id="linkedin-logo" preserveAspectRatio="xMidYMid" viewBox="0 0 373.79 94.716">
      <g fill="#231f20">
        <polygon transform="translate(-14.104,-99.642)" points="14.104 180.35 55.767 180.35 55.767 166.87 28.715 166.87 28.715 113.65 14.104 113.65"/>
        <path d="m55.138 13.019c-4.493 0-8.142 3.65-8.141 8.144 0 4.5 3.649 8.141 8.141 8.141 4.498 0 8.147-3.64 8.147-8.141 1e-3 -4.494-3.649-8.144-8.147-8.144z"/>
        <rect x="48.117" y="35.488" width="14.044" height="45.202"/>
        <polygon transform="translate(-14.104,-99.642)" points="149.01 153.51 149.01 113.65 134.97 113.65 134.97 180.35 149.01 180.35 149.01 158 149.19 158 164.09 180.35 181.74 180.35 163.7 156.04 182.12 135.11 164.91 135.11"/>
        <path d="m96.888 34.373c-6.833 0-11.421 3.743-13.292 7.301h-0.188v-6.178h-13.48v45.194h14.044v-22.354c0-5.893 1.119-11.605 8.42-11.605 7.209 0 7.306 6.736 7.306 11.98v21.979h14.043v-24.789c1e-3 -12.168-2.619-21.528-16.853-21.528z"/>
        <path d="m190.27 34.108c-14.039 0-25.274 9.361-25.274 23.869 0 14.513 11.235 23.879 25.274 23.879 7.308 0 14.699-3.28 19.193-8.993l-9.829-7.208c-2.341 3.184-5.428 5.523-10.017 5.523-5.432 0-9.464-3.463-10.578-8.801h32.579v-4.4c2e-3 -14.508-8.229-23.869-21.348-23.869zm-11.229 18.727c0.37-4.4 3.743-8.614 9.919-8.614 5.061 0 8.711 3.934 8.618 8.614z"/>
        <path d="m250.98 14.004v26.047h-0.183c-3.184-4.4-8.612-5.99-14.422-5.99-12.919 0-20.782 11.608-20.782 24.249 0 13.765 8.893 23.496 22.377 23.496 6.368 0 11.793-3.84 13.953-7.115h0.182v5.994h12.926v-66.68h-14.051zm-10.114 55.443c-7.017 0-11.229-4.675-11.229-11.515 0-6.828 4.213-11.514 11.229-11.514 7.026 0 11.239 4.682 11.239 11.514 0 6.84-4.213 11.515-11.239 11.515z"/>
      </g>
      <path d="m366.78 0h-80.717c-3.857 0-6.991 3.057-6.991 6.824v81.058c0 3.771 3.134 6.834 6.991 6.834h80.717c3.863 0 7.011-3.061 7.011-6.834v-81.058c-1e-3 -3.767-3.148-6.824-7.011-6.824z" fill="#0077b5"/>
      <path d="m293.12 35.509h14.05v45.201h-14.05zm7.028-22.47c4.491 0 8.143 3.65 8.143 8.143 0 4.497-3.65 8.147-8.143 8.147-4.502 0-8.146-3.65-8.146-8.147-1e-3 -4.491 3.644-8.143 8.146-8.143" fill="#fff"/>
      <path d="m315.98 35.509h13.473v6.177h0.188c1.876-3.554 6.459-7.301 13.293-7.301 14.226 0 16.854 9.362 16.854 21.532v24.793h-14.039v-21.982c0-5.242-0.097-11.984-7.301-11.984-7.311 0-8.434 5.711-8.434 11.605v22.361h-14.036v-45.201z" fill="#fff"/>
    </symbol>
    <symbol id="rainbow-logo" preserveAspectRatio="xMidYMid" viewBox="0 0 385 96.4">
      <style type="text/css">
        .st0{fill:#FFFFFF;}
        .st1{fill:#FF0000;}
      </style>
      <polygon class="st0" transform="translate(-7.5,-101.8)" points="29 174.3 46.9 174.3 57 164.2 66.9 174.3 82.6 174.3 82.6 161.6 73.7 161.6 66.6 154.6 82.6 138.6 82.6 125.7 28.9 125.7 28.9 168.1 41.6 155.4 41.6 138.4 64.8 138.4"/>
      <path d="m150.1 55.5v-24.1h-37.6v33.6h9.6v-9.5h6.1l8.9 9.5h13.2l-8.9-9.5zm-9.6-9.4h-18.4v-5.2h18.4zm54.9-14.7h9.5v33.6h-9.5zm96 33.6h37.6v-33.6h-37.6zm9-24.2h19.7v14.7h-19.7zm-91.7-9.4h37.5v33.6h-8.9v-24.2h-19.6v24.2h-8.9v-33.6zm-54.8 33.6h9.6v-9.5h18.4v9.5h9.6v-33.6h-37.6zm9.7-24.2h18.4v5.2h-18.4zm96-19.3h-9.6v43.5h37.6v-33.6h-28zm19.1 19.3v14.7h-19.7v-14.7zm106.3-9.4v33.6h-52.1v-33.6h9.5v24.2h11.9v-24.2h9.5v24.2h11.7v-24.2z"/>
      <path class="st1" d="m87.8 0h-79.2c-4.8 0-8.6 3.9-8.6 8.6v79.2c0 4.8 3.9 8.6 8.6 8.6h79.2c4.8 0 8.6-3.8 8.6-8.6v-79.2c0-4.8-3.8-8.6-8.6-8.6zm-12.7 36.8-15.9 15.9 7.1 7h8.8v12.7h-15.7l-9.9-10-10.1 10.1h-17.9l35.9-35.8h-23.3v17l-12.7 12.7v-42.3h53.6v12.7z"/>
      <path d="m98 91.8h3.7v0.7h-1.4v3.8h-0.8v-3.8h-1.4v-0.7zm7.8 0-1.2 3.5-1.2-3.5h-1.1v4.5h0.8v-3.5l1.3 3.5h0.7l1.3-3.5v3.5h0.8v-4.5z"/>
    </symbol>
    <!-- social -->
    <symbol id="twitter-icon" preserveAspectRatio="xMidYMid" viewBox="0 0 112.2 112.2">
      <circle cx="56.099" cy="56.098" r="56.098"/>
      <path d="m90.461 40.316c-2.404 1.066-4.99 1.787-7.702 2.109 2.769-1.659 4.894-4.284 5.897-7.417-2.591 1.537-5.462 2.652-8.515 3.253-2.446-2.605-5.931-4.233-9.79-4.233-7.404 0-13.409 6.005-13.409 13.409 0 1.051 0.119 2.074 0.349 3.056-11.144-0.559-21.025-5.897-27.639-14.012-1.154 1.98-1.816 4.285-1.816 6.742 0 4.651 2.369 8.757 5.965 11.161-2.197-0.069-4.266-0.672-6.073-1.679-1e-3 0.057-1e-3 0.114-1e-3 0.17 0 6.497 4.624 11.916 10.757 13.147-1.124 0.308-2.311 0.471-3.532 0.471-0.866 0-1.705-0.083-2.523-0.239 1.706 5.326 6.657 9.203 12.526 9.312-4.59 3.597-10.371 5.74-16.655 5.74-1.08 0-2.15-0.063-3.197-0.188 5.931 3.806 12.981 6.025 20.553 6.025 24.664 0 38.152-20.432 38.152-38.153 0-0.581-0.013-1.16-0.039-1.734 2.622-1.89 4.895-4.251 6.692-6.94z" fill="#F1F2F2"/>
    </symbol>
    <symbol id="fb-icon" preserveAspectRatio="xMidYMid" viewBox="0 0 291.319 291.319">
      <path class="fb-circle" d="M145.659,0c80.45,0,145.66,65.219,145.66,145.66c0,80.45-65.21,145.659-145.66,145.659   S0,226.109,0,145.66C0,65.219,65.21,0,145.659,0z"/>
      <path d="m163.39 100.28h18.772v-27.73h-22.067v0.1c-26.738 0.947-32.218 15.977-32.701 31.763h-0.055v13.847h-18.207v27.156h18.207v72.793h27.439v-72.793h22.477l4.342-27.156h-26.81v-8.366c0-5.335 3.55-9.614 8.603-9.614z" fill="#fff"/>
    </symbol>
    <symbol id="github-icon" preserveAspectRatio="xMidYMid" viewBox="0 0 512 512">
      <circle cx="256" cy="260" r="240" fill="#fff"/>
      <path d="m255.97 5.329c-141.34 0-255.97 115.07-255.97 257.02 0 113.54 73.344 209.86 175.1 243.87 12.8 2.368 17.472-5.568 17.472-12.384 0-6.112-0.224-22.272-0.352-43.712-71.2 15.52-86.24-34.464-86.24-34.464-11.616-29.696-28.416-37.6-28.416-37.6-23.264-15.936 1.728-15.616 1.728-15.616 25.696 1.824 39.2 26.496 39.2 26.496 22.848 39.264 59.936 27.936 74.528 21.344 2.304-16.608 8.928-27.936 16.256-34.368-56.832-6.496-116.61-28.544-116.61-127.01 0-28.064 9.984-51.008 26.368-68.992-2.656-6.496-11.424-32.64 2.496-68 0 0 21.504-6.912 70.4 26.336 20.416-5.696 42.304-8.544 64.096-8.64 21.728 0.128 43.648 2.944 64.096 8.672 48.864-33.248 70.336-26.336 70.336-26.336 13.952 35.392 5.184 61.504 2.56 68 16.416 17.984 26.304 40.928 26.304 68.992 0 98.72-59.84 120.45-116.86 126.82 9.184 7.936 17.376 23.616 17.376 47.584 0 34.368-0.32 62.08-0.32 70.496 0 6.88 4.608 14.88 17.6 12.352 101.6-34.048 174.88-130.34 174.88-243.84 0-141.95-114.62-257.02-256.03-257.02z"/>
    </symbol>
    <symbol id="linkedin-icon" preserveAspectRatio="xMidYMid" viewBox="0 0 112.196 112.196">
      <circle cx="56.098" cy="56.097" r="56.098"/>
      <path d="m89.616 60.611v23.128h-13.409v-21.578c0-5.418-1.936-9.118-6.791-9.118-3.705 0-5.906 2.491-6.878 4.903-0.353 0.862-0.444 2.059-0.444 3.268v22.524h-13.41s0.18-36.546 0-40.329h13.411v5.715c-0.027 0.045-0.065 0.089-0.089 0.132h0.089v-0.132c1.782-2.742 4.96-6.662 12.085-6.662 8.822 0 15.436 5.764 15.436 18.149zm-54.96-36.642c-4.587 0-7.588 3.011-7.588 6.967 0 3.872 2.914 6.97 7.412 6.97h0.087c4.677 0 7.585-3.098 7.585-6.97-0.089-3.956-2.908-6.967-7.496-6.967zm-6.791 59.77h13.405v-40.33h-13.405v40.33z" fill="#F1F2F2"/>
    </symbol>
    <!-- More -->
    <symbol id="menu-icon" preserveAspectRatio="xMidYMid" viewBox="0 0 82 82.954">
      <g transform="translate(-9,-8.523)">
        <path d="m9 91.477 27-10.8v-72.154l-27 10.8zm2-70.8 23-9.2v67.846l-23 9.2z"/>
        <path d="m64 19.323v72.154l27-10.8v-72.154zm25 60-23 9.2v-67.846l23-9.2z"/>
        <path d="m36.5 80.677 27 10.8v-72.154l-27-10.8zm2-69.2 23 9.2v67.846l-23-9.2z"/>
      </g>
    </symbol>
    <symbol id="preset-icon" preserveAspectRatio="xMidYMid" viewBox="0 0 73.8 76.7">
      <g transform="translate(-8.1,-6.6)"><path d="m80.9 46h-56.1c-0.6 0-1-0.4-1-1s0.4-1 1-1h56.1c0.6 0 1 0.4 1 1s-0.5 1-1 1z"/></g><g transform="translate(-8.1,-6.6)"><path d="m18.3 46h-9.2c-0.6 0-1-0.4-1-1s0.4-1 1-1h9.2c0.6 0 1 0.4 1 1s-0.5 1-1 1z"/></g><g transform="translate(-8.1,-6.6)"><path d="m21.5 56.3c-2.3 0-4.3-1.9-4.3-4.3v-14.1c0-2.3 1.9-4.3 4.3-4.3 1.1 0 2.2 0.4 3 1.2s1.3 1.9 1.3 3v14.2c0 2.4-1.9 4.3-4.3 4.3zm0-20.6c-1.2 0-2.3 1-2.3 2.3v14.2c0 1.2 1 2.3 2.3 2.3s2.3-1 2.3-2.3v-14.3c0-0.6-0.2-1.2-0.7-1.6-0.4-0.4-1-0.6-1.6-0.6z"/></g><g transform="translate(-8.1,-6.6)"><path d="m80.9 73h-34c-0.6 0-1-0.4-1-1s0.4-1 1-1h34c0.6 0 1 0.4 1 1s-0.5 1-1 1z"/></g><g transform="translate(-8.1,-6.6)"><path d="m40.4 73h-31.3c-0.6 0-1-0.4-1-1s0.4-1 1-1h31.3c0.6 0 1 0.4 1 1s-0.5 1-1 1z"/></g><g transform="translate(-8.1,-6.6)"><path d="m43.6 83.3c-2.3 0-4.3-1.9-4.3-4.3v-14.1c0-2.3 1.9-4.3 4.3-4.3 1.1 0 2.2 0.4 3 1.2s1.2 1.9 1.2 3v14.2c0.1 2.4-1.8 4.3-4.2 4.3zm0-20.6c-1.2 0-2.3 1-2.3 2.3v14.2c0 1.2 1 2.3 2.3 2.3s2.3-1 2.3-2.3v-14.3c0-0.6-0.2-1.2-0.7-1.6-0.4-0.4-1-0.6-1.6-0.6z"/></g><g transform="translate(-8.1,-6.6)"><path d="m80.9 19h-11.1c-0.6 0-1-0.4-1-1s0.4-1 1-1h11.1c0.6 0 1 0.4 1 1s-0.5 1-1 1z"/></g><g transform="translate(-8.1,-6.6)"><path d="m63.3 19h-54.2c-0.6 0-1-0.4-1-1s0.4-1 1-1h54.2c0.6 0 1 0.4 1 1s-0.5 1-1 1z"/></g><g transform="translate(-8.1,-6.6)"><path d="m66.5 29.3c-2.3 0-4.3-1.9-4.3-4.3v-14.1c0-2.3 1.9-4.3 4.3-4.3 1.1 0 2.2 0.4 3 1.2s1.3 1.9 1.3 3v14.2c0 2.4-1.9 4.3-4.3 4.3zm0-20.6c-1.2 0-2.3 1-2.3 2.3v14.2c0 1.2 1 2.3 2.3 2.3s2.3-1 2.3-2.3v-14.3c0-0.6-0.2-1.2-0.7-1.6-0.4-0.4-1-0.6-1.6-0.6z"/></g>
    </symbol>
    <symbol id="expand-icon" preserveAspectRatio="xMidYMid" viewBox="0 0 20 20">
      <g transform="translate(-2,-2)" data-name="Layer 2">
        <polygon points="13.29 9.29 14.71 10.71 20 5.41 20 8 22 8 22 2 16 2 16 4 18.59 4"/>
        <polygon points="10.71 14.71 9.29 13.29 4 18.59 4 16 2 16 2 22 8 22 8 20 5.41 20"/>
        <polygon points="7 7 12 7 12 5 5 5 5 12 7 12"/>
        <polygon points="19 12 17 12 17 17 12 17 12 19 19 19"/>
      </g>
    </symbol>
    <symbol id="layout-icon" preserveAspectRatio="xMidYMid" viewBox="0 0 28 28">
      <path d="m15 18h13v-15a3 3 0 0 0-3-3h-10z"/>
      <path d="m13 8v-8h-10a3 3 0 0 0-3 3v5z"/>
      <path d="m15 20v8h10a3 3 0 0 0 3-3v-5z"/>
      <path d="m13 10h-13v15a3 3 0 0 0 3 3h10z"/>
    </symbol>
    <symbol id="tpl-icon" preserveAspectRatio="xMidYMid" viewBox="0 0 90 90">
      <path d="m82 0h-74c-4.4 0-8 3.6-8 8v74c0 4.4 3.6 8 8 8h74c4.4 0 8-3.6 8-8v-74c0-4.4-3.6-8-8-8zm-74 4h74c2.2 0 4 1.8 4 4v8h-82v-8c0-2.2 1.8-4 4-4zm74 82h-74c-2.2 0-4-1.8-4-4v-62h82v62c0 2.2-1.8 4-4 4zm-73.4-74.6c-0.4-0.4-0.6-0.9-0.6-1.4s0.2-1 0.6-1.4c0.7-0.8 2.1-0.8 2.8 0 0.4 0.4 0.6 0.9 0.6 1.4s-0.2 1-0.6 1.4-0.9 0.6-1.4 0.6-1-0.2-1.4-0.6zm8 0c-0.4-0.4-0.6-0.9-0.6-1.4v-0.4c0-0.1 0.1-0.2 0.1-0.4 0-0.1 0.1-0.2 0.2-0.3s0.1-0.2 0.2-0.3 0.2-0.2 0.3-0.2c0.1-0.1 0.2-0.1 0.4-0.2 0.1-0.1 0.2-0.1 0.4-0.1 0.6-0.1 1.3 0.1 1.8 0.5 0.4 0.4 0.6 0.9 0.6 1.4v0.4c0 0.1-0.1 0.2-0.1 0.4 0 0.1-0.1 0.2-0.2 0.3s-0.1 0.2-0.2 0.3-0.2 0.2-0.3 0.2c-0.1 0.1-0.2 0.1-0.3 0.2s-0.2 0.1-0.4 0.1h-0.8c-0.1 0-0.2-0.1-0.4-0.1-0.1 0-0.2-0.1-0.4-0.2-0.1 0-0.2-0.1-0.3-0.2zm8 0c-0.4-0.4-0.6-0.9-0.6-1.4s0.2-1 0.6-1.4c0.7-0.8 2.1-0.8 2.8 0 0.4 0.4 0.6 0.9 0.6 1.4s-0.2 1-0.6 1.4-0.9 0.6-1.4 0.6-1-0.2-1.4-0.6zm53.4 14.6h-20c-1.1 0-2 0.9-2 2v50c0 1.1 0.9 2 2 2h20c1.1 0 2-0.9 2-2v-50c0-1.1-0.9-2-2-2zm-2 50h-16v-46h16zm-28-10h-36c-1.1 0-2 0.9-2 2v10c0 1.1 0.9 2 2 2h36c1.1 0 2-0.9 2-2v-10c0-1.1-0.9-2-2-2zm-2 10h-32v-6h32zm2-50h-36c-1.1 0-2 0.9-2 2v30c0 1.1 0.9 2 2 2h36c1.1 0 2-0.9 2-2v-30c0-1.1-0.9-2-2-2zm-2 30h-32v-26h32z"/>
    </symbol>
    <symbol id="plugin-icon" preserveAspectRatio="xMidYMid" viewBox="0 0 25 25">
      <path d="m5.8 12h-1.8v-7a1 1 0 0 1 1-1h7v2.661a0.5 0.5 0 0 0 0.841 0.366 1.31 1.31 0 0 1 0.9-0.349 1.322 1.322 0 1 1 0 2.644 1.31 1.31 0 0 1-0.9-0.349 0.5 0.5 0 0 0-0.841 0.366v2.661h-1.8a2.322 2.322 0 1 0-4.4 0zm3.14 5a2.326 2.326 0 0 1 3.06-2.2v-1.8h-2.661a0.5 0.5 0 0 1-0.366-0.841 1.31 1.31 0 0 0 0.349-0.9 1.322 1.322 0 1 0-2.644 0 1.31 1.31 0 0 0 0.349 0.9 0.5 0.5 0 0 1-0.366 0.841h-2.661v7a1 1 0 0 0 1 1h7v-1.8a2.326 2.326 0 0 1-3.06-2.2zm10.26-4a2.322 2.322 0 1 1-4.4 0h-1.8v2.661a0.5 0.5 0 0 1-0.841 0.366 1.31 1.31 0 0 0-0.9-0.349 1.322 1.322 0 1 0 0 2.644 1.31 1.31 0 0 0 0.9-0.349 0.5 0.5 0 0 1 0.841 0.366v2.661h7a1 1 0 0 0 1-1v-7z"/>
    </symbol>
    <symbol id="icons-icon" preserveAspectRatio="xMidYMid" viewBox="0 0 65 65">
      <path d="m57 0h-18c-2.757 0-5 2.243-5 5v18c0 2.757 2.243 5 5 5h18c2.757 0 5-2.243 5-5v-18c0-2.757-2.243-5-5-5zm3 23c0 1.654-1.346 3-3 3h-18c-1.654 0-3-1.346-3-3v-18c0-1.654 1.346-3 3-3h18c1.654 0 3 1.346 3 3zm-3 11h-18c-2.757 0-5 2.243-5 5v18c0 2.757 2.243 5 5 5h18c2.757 0 5-2.243 5-5v-18c0-2.757-2.243-5-5-5zm3 23c0 1.654-1.346 3-3 3h-18c-1.654 0-3-1.346-3-3v-18c0-1.654 1.346-3 3-3h18c1.654 0 3 1.346 3 3zm-37-23h-18c-2.757 0-5 2.243-5 5v18c0 2.757 2.243 5 5 5h18c2.757 0 5-2.243 5-5v-18c0-2.757-2.243-5-5-5zm3 23c0 1.654-1.346 3-3 3h-18c-1.654 0-3-1.346-3-3v-18c0-1.654 1.346-3 3-3h18c1.654 0 3 1.346 3 3zm-3-57h-18c-2.757 0-5 2.243-5 5v18c0 2.757 2.243 5 5 5h18c2.757 0 5-2.243 5-5v-18c0-2.757-2.243-5-5-5zm3 23c0 1.654-1.346 3-3 3h-18c-1.654 0-3-1.346-3-3v-18c0-1.654 1.346-3 3-3h18c1.654 0 3 1.346 3 3zm-12-16c-4.411 0-8 3.14-8 7 0 1.392 0.462 2.721 1.341 3.873l-0.327 1.963c-0.053 0.319 0.051 0.644 0.279 0.872 0.241 0.24 0.578 0.332 0.872 0.278l2.887-0.481c0.943 0.328 1.934 0.495 2.948 0.495 4.411 0 8-3.14 8-7s-3.589-7-8-7zm0 12c-0.863 0-1.702-0.154-2.495-0.458-0.115-0.044-0.236-0.066-0.358-0.066-0.055 0-0.11 4e-3 -0.165 0.014l-1.766 0.294 0.171-1.028c0.049-0.295-0.037-0.597-0.233-0.823-0.755-0.864-1.154-1.878-1.154-2.933 0-2.757 2.691-5 6-5s6 2.243 6 5-2.691 5-6 5zm41-11h-14c-0.553 0-1 0.448-1 1v10c0 0.552 0.447 1 1 1h14c0.553 0 1-0.448 1-1v-10c0-0.552-0.447-1-1-1zm-1 2v0.941l-6 3-6-3v-0.941zm-12 8v-5.941l6 3 6-3v5.941zm-24 23h-8c-1.654 0-3 1.346-3 3v8c0 1.654 1.346 3 3 3h8c1.654 0 3-1.346 3-3v-8c0-1.654-1.346-3-3-3zm-8 2h8c0.551 0 1 0.449 1 1v1h-10v-1c0-0.551 0.449-1 1-1zm8 10h-8c-0.551 0-1-0.449-1-1v-6h10v6c0 0.551-0.449 1-1 1zm36.555-5.832-9-6c-0.307-0.205-0.701-0.225-1.025-0.05-0.327 0.174-0.53 0.513-0.53 0.882v12c0 0.369 0.203 0.708 0.527 0.882 0.331 0.176 0.727 0.152 1.027-0.05l9-6c0.279-0.186 0.446-0.498 0.446-0.832s-0.167-0.646-0.445-0.832zm-8.555 4.963v-8.263l6.197 4.132z"/>
    </symbol>
  </defs>
</svg>